<?xml version="1.0" standalone="no"?>
<!DOCTYPE svg PUBLIC "-//W3C//DTD SVG 20010904//EN"
 "http://www.w3.org/TR/2001/REC-SVG-20010904/DTD/svg10.dtd">
<svg version="1.0" xmlns="http://www.w3.org/2000/svg"
 width="512.000000pt" height="512.000000pt" viewBox="0 0 512.000000 512.000000"
 preserveAspectRatio="xMidYMid meet">

<g transform="translate(0.000000,512.000000) scale(0.100000,-0.100000)"
fill="#000000" stroke="none">
<path d="M2370 5054 c-503 -44 -963 -219 -1357 -516 -125 -94 -323 -285 -428
-413 -305 -371 -499 -825 -566 -1325 -16 -120 -16 -463 0 -595 93 -759 497
-1416 1131 -1840 193 -129 574 -305 660 -305 43 0 74 18 96 53 17 29 18 51 15
267 -1 129 -3 236 -4 236 -1 1 -38 -4 -82 -12 -264 -44 -496 16 -646 166 -58
57 -76 85 -134 205 -94 196 -149 271 -255 348 -78 56 -120 98 -120 119 0 50
121 67 217 30 125 -47 208 -119 299 -258 133 -201 309 -288 522 -257 80 12
187 44 204 61 5 5 16 37 24 72 19 82 67 182 110 230 40 45 44 42 -86 60 -103
14 -282 60 -368 94 -362 143 -571 410 -649 829 -25 134 -25 463 0 567 36 146
104 287 193 396 l45 55 -15 47 c-52 161 -46 370 16 564 20 61 24 67 54 73 107
20 352 -68 576 -206 l98 -61 87 20 c204 47 298 57 553 57 256 0 349 -10 553
-57 l88 -20 77 48 c153 96 304 167 407 193 85 21 159 31 191 25 28 -5 33 -12
52 -72 57 -180 66 -403 22 -545 l-21 -68 33 -37 c82 -91 168 -262 205 -408 25
-98 25 -440 0 -571 -102 -546 -428 -838 -1027 -923 -120 -17 -118 -15 -83 -53
46 -48 90 -134 115 -223 21 -75 22 -102 25 -519 3 -378 5 -444 19 -471 18 -35
50 -54 94 -54 47 0 224 69 390 151 711 353 1215 1013 1369 1794 33 169 44 291
44 500 1 297 -35 522 -129 802 -131 394 -324 705 -623 1003 -230 229 -414 360
-695 496 -348 167 -662 241 -1051 248 -110 2 -220 2 -245 0z"/>
</g>
</svg>
