<?xml version="1.0" standalone="no"?>
<!DOCTYPE svg PUBLIC "-//W3C//DTD SVG 20010904//EN"
 "http://www.w3.org/TR/2001/REC-SVG-20010904/DTD/svg10.dtd">
<svg version="1.0" xmlns="http://www.w3.org/2000/svg"
 width="775.000000pt" height="741.000000pt" viewBox="0 0 775.000000 741.000000"
 preserveAspectRatio="xMidYMid meet">

<g transform="translate(0.000000,741.000000) scale(0.100000,-0.100000)"
fill="#000000" stroke="none">
<path d="M1800 4077 l0 -1877 134 0 c565 0 1252 -149 1797 -390 l109 -48 117
52 c525 234 1225 386 1780 386 l133 0 0 1875 0 1875 -149 0 c-553 0 -1240
-142 -1754 -363 l-128 -55 -92 40 c-235 102 -567 209 -834 267 -321 70 -564
100 -880 108 l-233 6 0 -1876z m415 1638 c418 -23 961 -147 1388 -317 l127
-51 0 -1653 0 -1653 -97 40 c-395 161 -984 292 -1413 314 -63 3 -134 8 -157
11 l-43 5 0 1660 0 1660 43 -5 c23 -3 92 -8 152 -11z m3445 -1644 l0 -1660
-42 -5 c-24 -3 -95 -8 -158 -11 -441 -23 -1052 -161 -1437 -323 l-73 -30 0
1653 0 1653 133 53 c312 123 622 208 957 263 219 36 329 48 598 65 l22 1 0
-1659z"/>
<path d="M1375 5408 c-3 -7 -4 -827 -3 -1823 l3 -1810 260 -7 c430 -10 775
-48 1179 -129 314 -62 731 -182 944 -271 l76 -32 61 23 c661 253 1387 392
2133 408 l272 6 0 1824 0 1823 -105 0 -105 0 0 -1719 0 -1718 -157 -7 c-548
-24 -1082 -105 -1565 -236 -156 -43 -352 -106 -456 -147 -72 -28 -68 -29 -222
27 -543 196 -1249 326 -1942 356 l-158 7 0 1718 0 1719 -105 0 c-75 0 -107 -4
-110 -12z"/>
</g>
</svg>
