<?xml version="1.0" standalone="no"?>
<!DOCTYPE svg PUBLIC "-//W3C//DTD SVG 20010904//EN"
 "http://www.w3.org/TR/2001/REC-SVG-20010904/DTD/svg10.dtd">
<svg version="1.0" xmlns="http://www.w3.org/2000/svg"
 width="512.000000pt" height="512.000000pt" viewBox="0 0 512.000000 512.000000"
 preserveAspectRatio="xMidYMid meet">

<g transform="translate(0.000000,512.000000) scale(0.100000,-0.100000)"
fill="#000000" stroke="none">
<path d="M2405 5110 c-628 -39 -1207 -300 -1651 -744 -415 -416 -667 -941
-735 -1531 -14 -129 -14 -421 0 -550 68 -589 320 -1115 735 -1531 413 -412
944 -668 1531 -735 129 -14 422 -14 550 0 594 69 1115 319 1531 735 414 415
668 943 735 1531 14 129 14 421 0 550 -115 1008 -790 1838 -1751 2155 -290 96
-631 139 -945 120z m312 -1731 c54 -11 97 -43 116 -89 6 -15 10 -155 11 -365
1 -306 3 -343 19 -372 33 -61 71 -45 170 74 125 151 230 328 316 536 68 163
36 152 426 152 313 0 324 -1 352 -21 37 -27 40 -67 13 -149 -27 -81 -93 -186
-255 -406 -234 -316 -254 -351 -240 -407 4 -15 79 -100 184 -207 172 -174 289
-315 317 -382 23 -54 18 -107 -14 -141 -42 -45 -84 -52 -322 -52 -392 1 -392
1 -666 292 -106 113 -154 145 -198 134 -41 -10 -63 -58 -86 -190 -28 -157 -39
-182 -93 -206 -34 -16 -65 -20 -162 -20 -321 0 -569 94 -813 309 -192 169
-440 534 -653 961 -180 362 -202 427 -159 470 19 19 33 20 287 20 357 -1 348
3 432 -195 104 -246 307 -556 393 -601 86 -44 112 48 106 381 -3 185 -6 225
-20 252 -22 39 -61 68 -115 82 -61 17 -65 48 -11 97 38 35 68 46 147 55 95 9
448 1 518 -12z"/>
</g>
</svg>
